<?xml version="1.0" encoding="iso-8859-1"?>
<!-- Generator: Adobe Illustrator 21.0.2, SVG Export Plug-In . SVG Version: 6.00 Build 0)  -->
<svg version="1.1" id="decor" xmlns="http://www.w3.org/2000/svg" xmlns:xlink="http://www.w3.org/1999/xlink" x="0px" y="0px"
	 viewBox="-49 141 512 512" style="enable-background:new -49 141 512 512;" xml:space="preserve">
<path style="fill:#FFFFFF;" d="M448.81,446.63l-1.75-0.8v-44.95c0-2.4-0.92-4.69-2.6-6.44l-1.12-1.18l6.81-28.59
	c2.09-8.82,0.08-17.95-5.54-25.05c-1.57-1.99-3.36-3.74-5.32-5.23c-0.8-0.61-1.63-1.17-2.48-1.69c-0.87-0.53-1.76-1.02-2.68-1.45
	c0.65-0.86,1.37-1.59,2.21-2.25c0.84-0.67,1.8-1.26,2.93-1.82c2.03-1,4.6-1.9,7.97-2.95c3.02-0.94,5.05-3.7,5.05-6.86
	c0-3.17-2.03-5.93-5.05-6.87c-12.11-3.77-13.92-5.59-17.7-17.69c-0.94-3.03-3.7-5.06-6.86-5.06c-3.17,0-5.93,2.03-6.87,5.06
	c-3.77,12.1-5.59,13.92-17.69,17.69c-3.03,0.94-5.06,3.7-5.06,6.87c0,3.16,2.03,5.92,5.05,6.86c2.7,0.84,4.9,1.59,6.71,2.37
	c1.26,0.55,2.34,1.11,3.28,1.73c0.96,0.65,1.78,1.35,2.52,2.18c-0.99,0.39-1.95,0.84-2.88,1.34c-0.93,0.48-1.83,1.03-2.7,1.62
	c-2.47,1.67-4.7,3.73-6.6,6.15c-5.61,7.11-7.63,16.23-5.53,25.04l6.81,28.6l-1.13,1.18c-1.67,1.75-2.6,4.04-2.6,6.44v44.95
	l-1.75,0.8c-6.8,3.1-11.19,9.91-11.19,17.35c0,10.49,8.54,19.04,19.04,19.06l5.32,0.01l-2.76,4.55
	c-16.75,27.56-47.1,44.68-79.22,44.68h-94.18l-0.66-2.1c-2.48-7.87-8.96-14.15-16.9-16.39l-2.19-0.61v-20.75l2.19-0.61
	c7.07-1.99,13.05-7.22,15.99-13.97l0.79-1.81h38.41c9.83,0,19.46-2.6,27.85-7.52l3.7-2.17l0.77,4.22c0.66,3.61,2.22,7.05,4.51,9.96
	c4.32,5.47,10.8,8.61,17.78,8.61c6.97,0,13.45-3.14,17.77-8.61c4.32-5.47,5.87-12.5,4.26-19.29l-8.68-36.44h6.06
	c10.51,0,19.06-8.55,19.06-19.06c0-8-5.06-15.2-12.58-17.93l-1.98-0.72v-39.6c0-2.28-0.85-4.49-2.39-6.21l-1.04-1.17l6.27-26.34
	c1.96-8.24,0.07-16.77-5.17-23.42c-5.25-6.64-13.12-10.45-21.58-10.45c-8.47,0-16.34,3.81-21.59,10.45
	c-5.24,6.65-7.13,15.18-5.17,23.42l6.27,26.34l-1.04,1.17c-1.54,1.72-2.39,3.93-2.39,6.21v39.6l-1.98,0.72
	c-7.52,2.73-12.58,9.93-12.58,17.93c0,10.51,8.55,19.06,19.06,19.06h6.06l-6.47,27.19l-1.05,0.65c-0.33,0.2-0.6,0.42-0.83,0.65
	c-8.77,8.87-20.45,13.75-32.9,13.75h-37.04l-0.38-2.57c-0.42-2.92-1.35-5.71-2.76-8.29l-0.95-1.73l1.21-1.56
	c3.84-4.92,5.87-10.83,5.87-17.1c0-1.26-0.08-2.53-0.25-3.77l-0.33-2.41l2.29-0.82c8.47-3.02,14.16-11.09,14.16-20.07
	c0-8.04-4.42-15.31-11.55-18.95l-1.98-1.02l0.4-2.19c0.76-4.19,0.63-8.46-0.37-12.69l-12.03-50.5c-1.45-6.11-5.83-11.05-11.7-13.2
	l-1.97-0.72v-88.81l2.19-0.62c10.62-2.99,18.03-12.77,18.03-23.79c0-0.67-0.02-1.34-0.07-1.98l-0.22-2.65l2.61-0.53
	c17.88-3.61,30.85-19.47,30.85-37.72c0-5.15-4.2-9.35-9.35-9.35h-45.3c-2.49,0-4.51,2.02-4.51,4.5s2.02,4.5,4.51,4.5h45.83
	l-0.33,3.3c-1.51,15.12-14.12,26.53-29.33,26.53h-1.27c-1.57,0-2.99,0.79-3.82,2.12s-0.91,2.96-0.22,4.36
	c1.08,2.19,1.62,4.52,1.62,6.92c0,8.67-7.05,15.72-15.72,15.72s-15.72-7.05-15.72-15.72c0-2.4,0.54-4.73,1.62-6.92
	c0.69-1.4,0.61-3.03-0.22-4.36s-2.26-2.12-3.82-2.12h-1.28c-15.21,0-27.82-11.41-29.32-26.53l-0.33-3.3h24.15
	c2.48,0,4.5-2.02,4.5-4.5s-2.02-4.5-4.5-4.5h-23.62c-5.15,0-9.35,4.2-9.35,9.35c0,18.25,12.97,34.11,30.85,37.72l2.6,0.53
	l-0.21,2.65c-0.05,0.65-0.08,1.32-0.08,1.98c0,11.02,7.42,20.8,18.04,23.79l2.19,0.62v50.12c-1.08-0.35-2.08-0.68-3-1.01
	c-1.11-0.4-2.1-0.79-3-1.2c-5.93-2.68-7.67-5.95-10.52-15.11c-0.47-1.52-1.4-2.78-2.6-3.67c-1.2-0.88-2.68-1.39-4.26-1.39
	c-3.17,0-5.93,2.03-6.87,5.06c-3.77,12.1-5.59,13.92-17.69,17.69c-3.03,0.94-5.06,3.7-5.06,6.87c0,3.16,2.03,5.92,5.05,6.86
	c12.11,3.77,13.93,5.59,17.7,17.7c0.94,3.02,3.7,5.05,6.87,5.05c3.16,0,5.92-2.03,6.86-5.05c2.85-9.17,4.59-12.44,10.52-15.12
	c0.89-0.41,1.89-0.81,3-1.21c0.92-0.32,1.91-0.66,3-1v24.22l-1.97,0.72c-5.87,2.16-10.25,7.09-11.7,13.2l-3.53,14.79
	c-0.27,1.17-0.08,2.38,0.55,3.4s1.62,1.74,2.79,2.02c1.17,0.28,2.37,0.09,3.4-0.54c1.02-0.63,1.74-1.62,2.02-2.8l3.52-14.78
	c1.04-4.38,4.92-7.44,9.42-7.44s8.37,3.06,9.41,7.44l12.03,50.5c1.14,4.81,0.67,9.72-1.37,14.19c-0.6,1.32-0.53,2.85,0.19,4.1
	c0.72,1.25,2,2.09,3.44,2.24c6.27,0.66,11,5.92,11,12.23c0,6.78-5.52,12.3-12.3,12.3h-1.48c-1.56,0-2.99,0.8-3.82,2.12
	c-0.82,1.33-0.9,2.96-0.21,4.37c1.29,2.62,1.94,5.4,1.94,8.28c0,3.38-0.92,6.71-2.66,9.62l-1.5,2.52l-2.55-1.44
	c-3.69-2.09-7.88-3.19-12.12-3.19c-4.25,0-8.44,1.1-12.13,3.19l-2.55,1.44l-1.5-2.51c-1.74-2.91-2.66-6.24-2.66-9.63
	c0-2.87,0.66-5.66,1.94-8.28c0.69-1.41,0.61-3.04-0.21-4.37c-0.83-1.32-2.26-2.12-3.82-2.12h-1.47c-6.79,0-12.31-5.52-12.31-12.3
	c0-6.31,4.73-11.57,11-12.23c1.44-0.15,2.72-0.99,3.44-2.24c0.72-1.25,0.79-2.78,0.19-4.1c-2.04-4.47-2.51-9.38-1.37-14.19
	l2.28-9.55c0.27-1.17,0.08-2.38-0.55-3.4c-0.63-1.02-1.62-1.74-2.79-2.02c-1.17-0.28-2.37-0.08-3.4,0.54
	c-1.02,0.63-1.74,1.63-2.02,2.8l-2.27,9.54c-1.01,4.23-1.13,8.5-0.37,12.69l0.39,2.19l-1.98,1.02
	c-7.12,3.64-11.55,10.91-11.55,18.95c0,8.98,5.69,17.05,14.16,20.07l2.3,0.82l-0.33,2.41c-0.17,1.24-0.26,2.51-0.26,3.77
	c0,6.14,2.09,12.22,5.88,17.1l1.21,1.56l-0.95,1.73c-1.42,2.58-2.35,5.37-2.77,8.29l-0.37,2.57h-37.04
	c-13.12,0-25.66-5.6-34.43-15.38l-0.57-0.64l-6.25-26.22h6.06c10.51,0,19.06-8.55,19.06-19.06c0-7.99-5.05-15.2-12.58-17.93
	l-1.98-0.72V347.5c0-2.29-0.85-4.5-2.39-6.22l-1.04-1.17l6.27-26.34c1.96-8.24,0.08-16.77-5.17-23.42
	c-5.25-6.64-13.12-10.45-21.58-10.45c-8.47,0-16.34,3.81-21.58,10.45c-5.25,6.65-7.14,15.18-5.18,23.42l6.28,26.34l-1.05,1.17
	c-1.54,1.73-2.39,3.93-2.39,6.22v39.59l-1.97,0.72c-7.53,2.73-12.59,9.94-12.59,17.93c0,10.51,8.55,19.06,19.06,19.06h6.06
	l-8.68,36.44c-1.61,6.79-0.06,13.82,4.26,19.29c4.32,5.47,10.8,8.61,17.78,8.61c6.97,0,13.45-3.14,17.77-8.61
	c2.3-2.91,3.86-6.36,4.52-9.98l0.76-4.22l3.7,2.16c8.46,4.94,18.09,7.55,27.85,7.55h38.41l0.79,1.81
	c2.94,6.76,8.92,11.98,15.99,13.97l2.19,0.62v20.74l-2.19,0.61c-7.94,2.24-14.42,8.52-16.9,16.39l-0.66,2.1H88.58
	c-32.71,0-62.33-16.7-79.24-44.69l-2.75-4.55h5.31c10.51-0.01,19.05-8.56,19.05-19.06c0-7.44-4.39-14.25-11.19-17.35l-1.75-0.8
	v-44.95c0-2.4-0.93-4.69-2.6-6.44l-1.12-1.18l6.8-28.59c2.1-8.82,0.08-17.95-5.53-25.05c-5.61-7.11-14.03-11.19-23.09-11.19
	c-9.05,0-17.47,4.08-23.08,11.19c-5.62,7.1-7.63,16.23-5.53,25.05l6.8,28.59l-1.12,1.18c-1.68,1.75-2.6,4.04-2.6,6.44v44.95
	l-1.75,0.8c-6.8,3.1-11.19,9.91-11.19,17.35c0,10.51,8.55,19.06,19.06,19.06h6.06l-8.68,36.45c-1.61,6.78-0.06,13.81,4.26,19.28
	c4.32,5.47,10.8,8.61,17.77,8.61c6.98,0,13.46-3.14,17.78-8.61c4.32-5.47,5.87-12.5,4.26-19.29l-3.07-12.9l7.31,6.94
	c18.9,17.9,43.69,27.76,69.82,27.76h60.54v10.06c0,23.77,14.94,45.49,37.17,54.04l3.79,1.46l-2.51,3.19
	c-3.46,4.4-5.29,9.67-5.29,15.25C182.28,638.91,193.37,650,207,650s24.72-11.09,24.72-24.72c0-5.58-1.82-10.85-5.28-15.25
	l-2.51-3.19l3.79-1.46c22.23-8.56,37.17-30.27,37.17-54.04v-10.06h60.54c19.45,0,38.35-5.52,54.66-15.95
	c5.37-3.44,10.48-7.43,15.17-11.88l7.32-6.93l-3.09,12.96c-1.61,6.79-0.06,13.82,4.26,19.29c4.32,5.47,10.8,8.61,17.78,8.61
	c6.97,0,13.45-3.14,17.77-8.61c4.32-5.47,5.87-12.5,4.26-19.29l-8.68-36.44h6.06c2.54,0,5.01-0.5,7.29-1.44
	c2.28-0.95,4.38-2.35,6.18-4.15c3.6-3.61,5.59-8.39,5.59-13.47C460,456.54,455.61,449.73,448.81,446.63z M308.96,295.93h0.01
	c3.53-4.47,8.82-7.03,14.51-7.03c5.7,0,10.99,2.56,14.52,7.03c3.53,4.47,4.8,10.21,3.48,15.76l-6.3,26.45h-23.39l-6.3-26.45
	C304.17,306.14,305.43,300.4,308.96,295.93z M338.4,347.14v39.54h-29.83v-39.54H338.4z M304.07,415.8
	c-5.55,0-10.06-4.52-10.06-10.06c0-5.55,4.51-10.07,10.06-10.07h38.83c5.55,0,10.06,4.52,10.06,10.07c0,5.54-4.51,10.06-10.06,10.06
	H304.07z M310.21,463.33l8.22-34.54c0.56-2.35,2.64-3.99,5.06-3.99c2.41,0,4.49,1.64,5.05,3.99l8.22,34.54
	c0.98,4.08,0.04,8.32-2.56,11.62c-2.61,3.3-6.51,5.19-10.71,5.19c-4.21,0-8.11-1.89-10.72-5.19
	C310.17,471.65,309.23,467.41,310.21,463.33z M190.2,280.61c-3.8,2.14-6.33,4.67-8.47,8.47l-2.61,4.64l-2.62-4.64
	c-2.14-3.8-4.67-6.33-8.47-8.47l-4.64-2.61l4.64-2.62c3.8-2.14,6.33-4.67,8.47-8.46l2.62-4.65l2.61,4.64
	c2.14,3.8,4.67,6.33,8.47,8.47l4.64,2.62L190.2,280.61z M76,295.93c3.53-4.47,8.82-7.03,14.52-7.03c5.69,0,10.99,2.56,14.52,7.03
	c3.53,4.47,4.79,10.21,3.48,15.76l-6.3,26.45h-23.4l-6.3-26.45C71.2,306.15,72.47,300.4,76,295.93z M105.43,347.14v39.54H75.6
	v-39.54H105.43z M71.1,415.8c-5.55,0-10.06-4.52-10.06-10.06c0-5.55,4.51-10.07,10.06-10.07h38.83c5.55,0,10.06,4.52,10.06,10.07
	c0,5.54-4.51,10.06-10.06,10.06H71.1z M101.23,474.95c-1.31,1.65-2.93,2.95-4.76,3.83c-1.83,0.89-3.85,1.36-5.95,1.36
	c-4.21,0-8.11-1.89-10.72-5.19c-2.6-3.3-3.54-7.53-2.56-11.62l8.22-34.54c0.56-2.35,2.64-3.99,5.06-3.99c2.41,0,4.49,1.64,5.05,3.99
	l8.23,34.54C104.77,467.42,103.83,471.65,101.23,474.95z M-23.55,345.2c1.95-2.47,4.39-4.41,7.12-5.74
	c2.73-1.32,5.77-2.03,8.91-2.03c6.28,0,12.12,2.83,16.02,7.77c3.89,4.93,5.29,11.27,3.84,17.38l-6.89,28.95H-20.5l-6.89-28.95
	C-28.84,356.46-27.44,350.13-23.55,345.2z M9.01,400.53v44.39h-33.07v-44.39H9.01z M-26.94,474.04c-5.55,0-10.06-4.51-10.06-10.06
	c0-5.55,4.51-10.06,10.06-10.06h38.83c5.55,0,10.06,4.51,10.06,10.06c0,5.55-4.51,10.06-10.06,10.06H-26.94z M3.19,533.19
	c-2.61,3.3-6.51,5.19-10.71,5.19c-4.21,0-8.11-1.89-10.72-5.19c-2.6-3.3-3.54-7.53-2.56-11.62l8.22-34.54
	c0.56-2.35,2.64-3.99,5.06-3.99c2.41,0,4.49,1.64,5.05,3.99l8.23,34.54C6.73,525.66,5.79,529.89,3.19,533.19z M191.28,468.02
	c0-8.67,7.05-15.72,15.72-15.72s15.72,7.05,15.72,15.72c0,8.67-7.05,15.73-15.72,15.73S191.28,476.69,191.28,468.02z M207,521.87
	c8.67,0,15.72,7.05,15.72,15.72c0,8.67-7.05,15.72-15.72,15.72s-15.72-7.05-15.72-15.72C191.28,528.92,198.33,521.87,207,521.87z
	 M207,641c-8.67,0-15.72-7.05-15.72-15.72c0-8.67,7.05-15.73,15.72-15.73s15.72,7.06,15.72,15.73C222.72,633.95,215.67,641,207,641z
	 M255.89,551.34c0,26.96-21.93,48.89-48.89,48.89s-48.89-21.93-48.89-48.89v-10.06h24.33l0.57,2.28
	c2.75,11.04,12.61,18.75,23.99,18.75s21.24-7.71,23.99-18.75l0.57-2.28h24.33V551.34z M406.95,317.37l4.64-2.62
	c3.8-2.14,6.34-4.67,8.47-8.47l2.62-4.64l2.61,4.64c2.14,3.8,4.67,6.34,8.47,8.47l4.64,2.62l-4.64,2.61
	c-1.75,0.98-3.22,2.05-4.52,3.29c-0.84,0.79-1.6,1.66-2.3,2.61c-0.58,0.79-1.13,1.64-1.65,2.57l-0.11,0.2l-2.5,4.44l-2.61-4.62
	l-0.01-0.02c-0.58-1.04-1.2-1.98-1.86-2.85c-0.76-0.99-1.57-1.88-2.48-2.69c-1.2-1.09-2.56-2.04-4.13-2.93L406.95,317.37z
	 M405.5,345.2c1.14-1.44,2.44-2.7,3.87-3.75c0.83-0.63,1.7-1.18,2.61-1.65c0.88-0.48,1.8-0.88,2.74-1.21
	c0.3,0.88,0.61,1.83,0.94,2.85c0.05,0.16,0.1,0.32,0.15,0.49c0.26,0.83,0.65,1.59,1.16,2.24c1.33,1.74,3.41,2.81,5.71,2.81
	c1.98,0,3.79-0.79,5.11-2.12c0.69-0.71,1.25-1.57,1.61-2.54c0.05-0.13,0.1-0.26,0.14-0.39c0.28-0.89,0.54-1.73,0.81-2.51
	c0.92,0.45,1.81,0.96,2.65,1.54c0.88,0.59,1.72,1.27,2.5,2.01c0.73,0.68,1.42,1.43,2.05,2.23c3.9,4.93,5.29,11.27,3.84,17.38
	l-6.89,28.95h-25.95l-6.89-28.95C400.21,356.47,401.61,350.13,405.5,345.2z M438.06,400.53v44.39h-33.07v-44.39H438.06z
	 M432.24,533.19c-2.61,3.3-6.51,5.19-10.71,5.19c-4.21,0-8.11-1.89-10.72-5.19c-2.6-3.3-3.54-7.53-2.56-11.62l8.22-34.54
	c0.56-2.35,2.64-3.99,5.06-3.99c2.41,0,4.49,1.64,5.05,3.99l8.22,34.54C435.78,525.66,434.84,529.89,432.24,533.19z M440.94,474.04
	h-38.83c-5.55,0-10.06-4.51-10.06-10.06c0-5.55,4.51-10.06,10.06-10.06h38.83c5.55,0,10.06,4.51,10.06,10.06
	C451,469.53,446.49,474.04,440.94,474.04z"/>
<path style="fill:#FFFFFF;" d="M320.13,217.31c-14.92-4.65-17.39-7.12-22.03-22.04c-1.02-3.26-4-5.45-7.41-5.45
	c-3.42,0-6.39,2.19-7.41,5.45c-4.64,14.92-7.11,17.39-22.03,22.04c-3.26,1.01-5.45,3.99-5.45,7.4c0,3.42,2.19,6.4,5.45,7.41
	c7.46,2.32,11.81,4.1,14.87,7.17c3.06,3.06,4.84,7.41,7.16,14.86c1.02,3.26,3.99,5.45,7.41,5.45c3.41,0,6.39-2.19,7.41-5.45
	c4.64-14.91,7.11-17.38,22.02-22.03c3.27-1.01,5.46-3.99,5.46-7.41C325.58,221.3,323.39,218.32,320.13,217.31z M307,227.43
	c-6.73,3.17-10.42,6.86-13.6,13.59l-2.71,5.75l-2.71-5.75c-3.18-6.73-6.87-10.41-13.6-13.59l-5.75-2.71l5.75-2.72
	c6.73-3.18,10.42-6.86,13.6-13.6l2.71-5.74l2.71,5.74c3.18,6.74,6.87,10.42,13.6,13.6l5.75,2.71L307,227.43z"/>
<path style="fill:#FFFFFF;" d="M46.13,268.31c-14.92-4.65-17.39-7.12-22.03-22.04c-1.02-3.26-4-5.45-7.41-5.45
	c-3.42,0-6.39,2.19-7.41,5.45c-4.64,14.92-7.11,17.39-22.03,22.04c-3.26,1.01-5.45,3.99-5.45,7.4c0,3.42,2.19,6.4,5.45,7.41
	c7.46,2.32,11.81,4.1,14.87,7.17c3.06,3.06,4.84,7.41,7.16,14.86c1.02,3.26,3.99,5.45,7.41,5.45c3.41,0,6.39-2.19,7.41-5.45
	c4.64-14.91,7.11-17.38,22.02-22.03c3.27-1.01,5.46-3.99,5.46-7.41C51.58,272.3,49.39,269.32,46.13,268.31z M33,278.43
	c-6.73,3.17-10.42,6.86-13.6,13.59l-2.71,5.75l-2.71-5.75c-3.18-6.73-6.87-10.41-13.6-13.59l-5.75-2.71L0.38,273
	c6.73-3.18,10.42-6.86,13.6-13.6l2.71-5.74l2.71,5.74c3.18,6.74,6.87,10.42,13.6,13.6l5.75,2.71L33,278.43z"/>
</svg>
