<?xml version="1.0" encoding="iso-8859-1"?>
<!-- Generator: Adobe Illustrator 21.0.2, SVG Export Plug-In . SVG Version: 6.00 Build 0)  -->
<svg version="1.1" id="design" xmlns="http://www.w3.org/2000/svg" xmlns:xlink="http://www.w3.org/1999/xlink" x="0px" y="0px"
	 viewBox="-49 141 512 512" style="enable-background:new -49 141 512 512;" xml:space="preserve">
<path style="fill:#FFFFFF;" d="M451.87,496.73l-2.55-0.39v-27.27c0-5.23-4.26-9.5-9.5-9.5h-63.24c-5.24,0-9.5,4.27-9.5,9.5
	c-0.01,4.37-0.02,11.44,0,12.29l1.36,16.16l-7.06-14.68c-2.48-5.15-7.52-8.35-13.16-8.35h-20.93v-55.38c0-8-6.51-14.5-14.5-14.5
	H72.38c-7.99,0-14.5,6.5-14.5,14.5v55.38H36.95c-8.09,0-14.67,6.58-14.67,14.68v76.5H3.63V381.35h31.14c5.24,0,9.5-4.26,9.5-9.5V343
	c0-2.48-2.02-4.5-4.5-4.5c-2.48,0-4.5,2.02-4.5,4.5v29.35H-37v-91.77h72.27V306c0,2.48,2.02,4.5,4.5,4.5c2.48,0,4.5-2.02,4.5-4.5
	v-24.92c0-5.24-4.26-9.5-9.5-9.5H-36.5c-5.24,0-9.5,4.26-9.5,9.5v90.77c0,5.24,4.26,9.5,9.5,9.5h31.13v184.32h-23.51
	c-5.24,0-9.5,4.26-9.5,9.5v13.56c0,5.24,4.26,9.5,9.5,9.5l95.33-0.07c5.29,0,9.59-4.3,9.59-9.59v-16.04H245c2.48,0,4.5-2.02,4.5-4.5
	c0-2.48-2.02-4.5-4.5-4.5H76.04v-42.45h233.09v42.45H285c-2.48,0-4.5,2.02-4.5,4.5c0,2.48,2.02,4.5,4.5,4.5h24.13v16.04
	c0,5.29,4.3,9.59,9.59,9.59h56.19c5.24,0,9.5-4.26,9.5-9.5V572.4H432v16.26c0,5.24,4.26,9.5,9.5,9.5h9c5.24,0,9.5-4.26,9.5-9.5
	v-82.47C460,501.51,456.5,497.44,451.87,496.73z M22.28,589.23h-51.66v-14.56h51.66V589.23z M67.04,589.16H31.28v-99.99
	c0-3.13,2.55-5.68,5.67-5.68h24.42c3.12,0,5.67,2.55,5.67,5.68V589.16z M152.48,512.08h-45.93v-45.54h45.93V512.08z M282.68,512.08
	h-45.92v-45.54h45.92V512.08z M309.13,489.17v22.91h-17.45v-45.04c0-5.24-4.26-9.5-9.5-9.5h-44.92c-5.24,0-9.5,4.26-9.5,9.5v45.04
	h-30.68V466c0-2.48-2.01-4.5-4.5-4.5c-2.48,0-4.5,2.02-4.5,4.5v46.08h-26.6v-45.04c0-5.24-4.26-9.5-9.5-9.5h-44.93
	c-5.23,0-9.5,4.26-9.5,9.5v45.04H76.04v-22.91c0-5.34-2.92-10.26-7.61-12.86l-1.55-0.85v-56.35c0-3.03,2.47-5.5,5.5-5.5h115.7V433
	c0,2.48,2.02,4.5,4.5,4.5c2.49,0,4.5-2.02,4.5-4.5v-19.39h115.71c3.03,0,5.5,2.47,5.5,5.5v56.34l-1.55,0.86
	C312.05,478.9,309.13,483.83,309.13,489.17z M353.89,589.16h-35.76v-99.99c0-3.13,2.55-5.68,5.67-5.68h24.42
	c3.12,0,5.67,2.55,5.67,5.68V589.16z M376.08,468.57h64.24v10.34h-64.24V468.57z M376.08,487.91h64.24v8.69h-64.24V487.91z
	 M375.41,589.16H365.4V572.4h10.01V589.16z M451,589.16h-10.01V572.4H451V589.16z M451,563.4h-85.6v-12.22H451V563.4z M451,542.18
	h-85.6V505.6H451V542.18z"/>
<path style="fill:#FFFFFF;" d="M422.36,527.27c0,2.48-2.01,4.5-4.5,4.5h-19.32c-2.48,0-4.5-2.02-4.5-4.5c0-2.48,2.02-4.5,4.5-4.5
	h19.32C420.35,522.77,422.36,524.79,422.36,527.27z"/>
<path style="fill:#FFFFFF;" d="M292.24,241.35c-0.85-0.85-1.98-1.32-3.18-1.32H96.11c-2.48,0-4.5,2.02-4.5,4.5v92.29
	c0,2.48,2.02,4.5,4.5,4.5h192.95c2.48,0,4.5-2.02,4.5-4.5v-92.29C293.56,243.33,293.09,242.2,292.24,241.35z M109.47,332.32
	l26.5-40.52l26.5,40.52H109.47z M173.23,332.32l-10.74-16.42l29.74-45.48l40.47,61.9H173.23z M243.46,332.32l-9.72-14.85
	l16.12-24.66l25.84,39.51H243.46z M284.55,329.42l-29.28-44.78c-1.26-1.92-3.28-3.07-5.41-3.07c-2.12,0-4.15,1.14-5.4,3.07
	l-16.09,24.61l-30.74-47c-1.26-1.93-3.28-3.08-5.41-3.08c-2.12,0-4.15,1.15-5.4,3.08l-29.71,45.43l-15.73-24.06
	c-1.26-1.92-3.28-3.07-5.41-3.07c-2.13,0-4.15,1.15-5.41,3.07l-29.95,45.8v-80.39h183.94V329.42z"/>
<path style="fill:#FFFFFF;" d="M304.96,218.82H80.21c-5.4,0-9.8,4.4-9.8,9.8v124.12c0,5.4,4.4,9.8,9.8,9.8h224.75
	c5.4,0,9.8-4.4,9.8-9.8V228.62C314.76,223.22,310.36,218.82,304.96,218.82z M305.76,353.54H79.41V227.82h226.35V353.54z"/>
<path style="fill:#FFFFFF;" d="M48.36,214.65c-9.64-3.04-10.95-4.36-13.96-14.15c-0.87-2.83-3.45-4.73-6.4-4.73
	c-2.96,0-5.53,1.91-6.4,4.74c-3.01,9.78-4.32,11.1-13.95,14.13c-2.82,0.89-4.71,3.47-4.71,6.42c0,2.96,1.89,5.54,4.7,6.43
	c4.82,1.51,7.56,2.6,9.46,4.53c1.91,1.93,2.99,4.7,4.49,9.59c0.87,2.84,3.45,4.75,6.41,4.75c2.95,0,5.53-1.91,6.4-4.74
	c3.01-9.78,4.32-11.1,13.95-14.13c2.81-0.89,4.7-3.47,4.7-6.43C53.05,218.11,51.17,215.53,48.36,214.65z M35.11,223.54
	c-1.88,1.29-3.35,2.76-4.63,4.64L28,231.81l-2.48-3.63c-1.28-1.88-2.75-3.35-4.63-4.64l-3.61-2.47l3.61-2.48
	c1.88-1.29,3.35-2.76,4.63-4.64l2.48-3.63l2.48,3.63c1.28,1.88,2.75,3.35,4.63,4.64l3.61,2.48L35.11,223.54z"/>
<path style="fill:#FFFFFF;" d="M424.28,267.03c-13.45-4.24-15.47-6.28-19.67-19.93c-0.98-3.14-3.84-5.26-7.12-5.26
	c-3.29,0-6.15,2.12-7.11,5.27c-4.19,13.64-6.22,15.68-19.67,19.92c-3.13,0.98-5.22,3.85-5.22,7.14c0,3.29,2.09,6.16,5.21,7.14h0.01
	c13.45,4.24,15.47,6.29,19.66,19.89c0.97,3.18,3.83,5.3,7.12,5.3c3.29,0,6.15-2.12,7.12-5.27c4.2-13.63,6.22-15.68,19.67-19.92
	c3.12-0.98,5.22-3.85,5.22-7.14C429.5,270.88,427.4,268.01,424.28,267.03z M410.99,276.84c-5.09,2.61-8.23,5.76-10.82,10.85
	l-2.67,5.25l-2.68-5.25c-2.59-5.09-5.73-8.24-10.82-10.85l-5.2-2.67l5.2-2.67c5.09-2.61,8.23-5.75,10.82-10.85l2.68-5.25l2.67,5.25
	c2.59,5.1,5.73,8.24,10.82,10.85l5.2,2.67L410.99,276.84z"/>
<path style="fill:#FFFFFF;" d="M385.16,377.01c-11.95-3.77-13.75-5.59-17.48-17.71c-0.94-3.03-3.69-5.06-6.84-5.06
	c-3.16,0-5.91,2.04-6.84,5.06c-3.73,12.12-5.53,13.94-17.48,17.71c-3,0.94-5.02,3.7-5.02,6.86c0,3.16,2.02,5.92,5.02,6.86
	c11.95,3.77,13.75,5.59,17.47,17.68c0.93,3.05,3.68,5.09,6.85,5.09c3.16,0,5.91-2.04,6.84-5.07c3.73-12.11,5.53-13.93,17.48-17.7
	c3-0.94,5.02-3.7,5.02-6.86C390.18,380.71,388.16,377.95,385.16,377.01z M371.79,386.48c-3.74,2.12-6.23,4.62-8.34,8.35l-2.61,4.64
	l-2.61-4.64c-2.11-3.73-4.6-6.23-8.34-8.35l-4.6-2.61l4.6-2.61c3.74-2.12,6.23-4.62,8.34-8.35l2.61-4.64l2.61,4.64
	c2.11,3.73,4.6,6.23,8.34,8.35l4.59,2.61L371.79,386.48z"/>
</svg>
