<?xml version="1.0" encoding="iso-8859-1"?>
<!-- Generator: Adobe Illustrator 21.0.2, SVG Export Plug-In . SVG Version: 6.00 Build 0)  -->
<svg version="1.1" id="landscape" xmlns="http://www.w3.org/2000/svg" xmlns:xlink="http://www.w3.org/1999/xlink" x="0px" y="0px"
	 viewBox="-49 141 512 512" style="enable-background:new -49 141 512 512;" xml:space="preserve">
<path style="fill:#FFFFFF;" d="M454.32,585.03H342.1v-57.42l2.6-0.35c23.14-3.11,43.2-17.38,55.05-39.14l0.64-1.19l1.32-0.31
	c15.63-3.57,30-12.76,40.47-25.89C453.67,446.32,460,427.9,460,408.85c0-28.94-14.59-55.62-38.08-69.64l-1.38-0.82l-0.08-1.6
	c-2.46-48.84-39.83-87.1-85.08-87.1c-14.25,0-28.36,3.88-40.79,11.23c-1.25,0.73-2.14,1.92-2.5,3.32c-0.36,1.41-0.16,2.87,0.58,4.12
	c1.53,2.58,4.87,3.44,7.45,1.92c10.76-6.36,22.95-9.72,35.26-9.72c40.91,0,74.26,36.4,74.34,81.14c0,2.06,1.15,3.91,2.98,4.84
	c22.13,11.2,36.43,35.66,36.43,62.31c0,33.67-22.9,62.84-53.27,67.85c-1.74,0.29-3.24,1.41-4.01,3.01
	c-9.32,19.32-26.6,32.93-46.23,36.4l-3.52,0.63V437.2l42.49-39.07c1.07-0.98,1.69-2.32,1.75-3.77s-0.45-2.84-1.43-3.91
	c-2.03-2.2-5.48-2.35-7.68-0.32l-35.13,32.3v-63.15c0-2.99-2.44-5.43-5.43-5.43c-3,0-5.44,2.44-5.44,5.43v108.94l-35.13-32.3
	c-1.06-0.99-2.46-1.48-3.9-1.43c-1.45,0.06-2.79,0.68-3.78,1.75c-2.02,2.2-1.88,5.65,0.33,7.68l42.48,39.07v33.98l-3.38-0.44
	c-21.03-2.71-39.41-16.66-49.18-37.33c-0.72-1.53-2.13-2.65-3.78-3c-29.37-6.24-50.69-34.56-50.69-67.35
	c0-25.83,13.07-49.22,34.1-61.06c1.73-0.97,2.79-2.81,2.76-4.8c0-0.21-0.01-0.42-0.01-0.63l-0.01-0.11v-0.39
	c0-18.2,5.37-35.41,15.55-49.75c0.84-1.19,1.16-2.63,0.92-4.06s-1.03-2.68-2.21-3.52c-1.19-0.84-2.63-1.17-4.06-0.93
	c-1.43,0.25-2.68,1.03-3.52,2.22c-10.8,15.23-16.85,33.41-17.5,52.58l-0.05,1.55l-1.31,0.86c-22.24,14.5-35.53,39.94-35.53,68.04
	c0,36.43,22.79,68.11,55.43,77.05l1.25,0.34l0.61,1.15c12.1,22.78,33.74,37.8,57.9,40.16l2.71,0.27v57.21h-11.18l-0.16-2.83
	c-1.17-20.82-15.33-38.93-35.23-45.07l-1.27-0.39l-0.56-1.2c-6.16-13.09-18.27-22.75-32.4-25.85l-1.87-0.41l-0.41-1.87
	c-4.7-21.34-23.94-36.83-45.76-36.83c-16.87,0-32.5,9.11-40.78,23.77l-0.83,1.46l-1.67,0.06c-16.1,0.61-30.8,9.13-39.32,22.78
	l-3.26,5.23l-2.1-5.79c-5.27-14.5-18.58-24.58-33.9-25.68l-2.78-0.2v-27.58l2.59-0.36c22.03-3.07,41.17-16.71,52.5-37.43l0.64-1.18
	l1.31-0.3c14.95-3.46,28.7-12.28,38.72-24.84c11.04-13.83,17.11-31.52,17.11-49.81c0-27.71-13.95-53.29-36.41-66.78l-1.37-0.82
	l-0.08-1.59c-2.45-46.78-38.33-83.42-81.68-83.42c-16.66,0-32.68,5.38-46.35,15.55c-2.4,1.79-2.9,5.2-1.11,7.61
	c1.79,2.4,5.2,2.9,7.61,1.11c11.77-8.77,25.55-13.4,39.85-13.4c39.04,0,70.87,34.74,70.94,77.45c0,2.05,1.15,3.91,2.98,4.84
	c21.11,10.68,34.75,34.02,34.75,59.45c0,32.12-21.84,59.95-50.81,64.73c-1.74,0.29-3.24,1.41-4.01,3
	c-8.93,18.54-24.84,31.17-43.64,34.66l-3.54,0.65v-75.8l40.6-37.34c2.2-2.02,2.35-5.47,0.32-7.68c-0.98-1.06-2.32-1.69-3.77-1.75
	c-1.46-0.05-2.84,0.45-3.91,1.43l-33.24,30.57v-59.93c0-2.99-2.44-5.43-5.44-5.43s-5.43,2.44-5.43,5.43v103.77l-33.25-30.57
	c-1.07-0.98-2.45-1.49-3.9-1.43c-1.45,0.06-2.79,0.68-3.78,1.75c-0.98,1.07-1.49,2.46-1.43,3.91s0.69,2.79,1.75,3.77l40.61,37.34
	v32.19l-3.41-0.47c-19.86-2.71-37.23-16-46.47-35.55c-0.72-1.53-2.14-2.65-3.79-3c-28.01-5.95-48.34-32.97-48.34-64.25
	c0-24.65,12.46-46.97,32.52-58.26c1.73-0.97,2.79-2.81,2.77-4.8c0-0.21-0.01-0.41-0.01-0.61l-0.01-0.11v-0.36
	c0-10.82,1.99-21.29,5.93-31.11c1.17-2.93,2.52-5.8,4.01-8.53c0.69-1.28,0.85-2.74,0.44-4.14c-0.41-1.39-1.34-2.54-2.62-3.23
	c-1.27-0.7-2.74-0.86-4.13-0.44c-1.39,0.41-2.54,1.34-3.24,2.61c-1.69,3.11-3.23,6.37-4.55,9.69c-4.03,10.03-6.26,20.68-6.65,31.64
	l-0.06,1.55l-1.3,0.86C-33.3,299.41-46,323.8-46,350.71c0,34.9,21.83,65.31,53.09,73.94L8.34,425l0.6,1.13
	c11.58,21.7,32.23,36.06,55.24,38.42l2.7,0.28v28.96l-2.02,0.71c-8.63,3.02-15.96,9.01-20.62,16.87l-0.82,1.37l-1.59,0.09
	c-19.04,1.09-34.44,14.96-37.46,33.73l-0.25,1.61l-1.49,0.66c-14.14,6.28-24.9,18.97-28.79,33.95l-0.59,2.25h-13.81
	c-3,0-5.44,2.44-5.44,5.43c0,3,2.44,5.44,5.44,5.44h494.88c3,0,5.44-2.44,5.44-5.44C459.76,587.47,457.32,585.03,454.32,585.03z
	 M-15.77,585.03l1.6-4.1c4.44-11.31,13.61-19.93,25.15-23.67c1.09-0.36,2.01-1.04,2.67-1.91c0.66-0.88,1.05-1.95,1.08-3.1
	c0.48-16.05,13.42-28.62,29.48-28.62c0.64,0,1.34,0.03,2.2,0.1c2.34,0.16,4.51-1.17,5.42-3.32c4.4-10.47,14.58-17.23,25.94-17.23
	c14.58,0,26.89,11.37,28.02,25.9c0.21,2.68,2.31,4.79,5,4.99c2.5,0.2,5,0.75,7.42,1.63l0.15,0.06c0.44,0.16,0.81,0.31,1.18,0.47
	l0.26,0.11c0.41,0.18,0.81,0.36,1.2,0.55l0.39,0.21c0.54,0.27,1.06,0.56,1.58,0.87l0.2,0.12c0.22,0.13,0.44,0.26,0.66,0.4
	c0.13,0.09,0.28,0.19,0.42,0.29l0.17,0.11c0.32,0.22,0.63,0.44,0.93,0.66c0.17,0.13,0.35,0.26,0.52,0.4
	c0.36,0.28,0.72,0.57,1.07,0.87l0.28,0.24c0.93,0.82,1.81,1.72,2.63,2.66l0.19,0.23c0.37,0.44,0.7,0.86,1.03,1.29l0.19,0.26
	c0.72,0.97,1.39,2.03,1.99,3.13l0.23,0.43c0.22,0.42,0.42,0.83,0.62,1.25l0.23,0.5c0.23,0.55,0.46,1.1,0.66,1.66
	c0.67,1.83,2.15,3.12,3.99,3.52c0.8,0.17,1.61,0.38,2.47,0.65c0.19,0.06,0.36,0.12,0.54,0.18l0.23,0.08
	c0.54,0.18,1.08,0.37,1.6,0.58c0.24,0.09,0.46,0.19,0.69,0.29l0.21,0.09c0.46,0.21,0.93,0.41,1.38,0.64
	c0.26,0.13,0.52,0.27,0.77,0.4l0.13,0.08c0.44,0.23,0.86,0.47,1.27,0.72c0.3,0.18,0.6,0.37,0.88,0.55c0.41,0.27,0.81,0.54,1.2,0.82
	c0.28,0.21,0.55,0.41,0.82,0.62c0.38,0.29,0.76,0.6,1.13,0.91l0.14,0.12c0.2,0.18,0.41,0.35,0.61,0.53
	c0.38,0.35,0.75,0.71,1.11,1.07l0.16,0.17c0.16,0.15,0.32,0.31,0.48,0.47c0.41,0.44,0.79,0.89,1.18,1.35l0.11,0.13
	c0.11,0.12,0.21,0.24,0.31,0.36c0.52,0.65,1.01,1.31,1.46,1.97c0.07,0.11,0.14,0.23,0.22,0.34l0.05,0.09
	c0.35,0.54,0.7,1.08,1.02,1.64c0.1,0.19,0.2,0.38,0.3,0.57l0.11,0.21c0.25,0.46,0.49,0.92,0.71,1.4c0.11,0.22,0.21,0.45,0.3,0.68
	l0.1,0.21c0.2,0.46,0.38,0.91,0.56,1.38c0.12,0.32,0.23,0.64,0.34,0.96c0.16,0.47,0.3,0.93,0.44,1.4c0.09,0.34,0.18,0.67,0.27,1
	c0.12,0.49,0.22,0.97,0.32,1.45c0.06,0.33,0.13,0.67,0.19,1.01c0.02,0.12,0.03,0.24,0.05,0.37l0.01,0.1l0.52,3.45H-15.77z
	 M174.13,585.03l-0.23-2.7c-0.01-0.1-0.02-0.19-0.03-0.29c-0.1-0.97-0.21-1.88-0.36-2.75l-0.03-0.15c-0.16-0.97-0.36-1.91-0.57-2.81
	l-0.03-0.11c-0.21-0.87-0.46-1.75-0.77-2.71l-0.09-0.29c-0.27-0.82-0.57-1.65-0.93-2.53l-0.14-0.37c-0.33-0.79-0.69-1.6-1.09-2.4
	l-0.18-0.38c-0.39-0.78-0.81-1.56-1.25-2.32l-0.2-0.32c-0.47-0.8-0.95-1.56-1.43-2.26l-0.19-0.27c-0.56-0.81-1.1-1.53-1.63-2.2
	l-0.14-0.17c-0.57-0.72-1.18-1.43-1.79-2.09l-0.07-0.08c-0.6-0.65-1.25-1.31-1.98-2l-0.14-0.13c-0.67-0.64-1.34-1.22-2.08-1.83
	l-0.28-0.24c-0.67-0.54-1.38-1.07-2.11-1.59l-0.35-0.25c-0.7-0.49-1.45-0.97-2.21-1.43l-0.36-0.21c-0.78-0.46-1.56-0.9-2.34-1.29
	l-0.32-0.16c-0.89-0.44-1.71-0.81-2.51-1.14l-0.23-0.09c-0.92-0.37-1.77-0.69-2.59-0.96l-1.26-0.28l-0.64-1.3
	c-0.04-0.08-0.09-0.17-0.13-0.25c-0.31-0.61-0.64-1.24-0.99-1.85c-0.12-0.22-0.26-0.44-0.39-0.65l-0.17-0.28
	c-0.22-0.36-0.44-0.73-0.68-1.1c-0.23-0.35-0.46-0.69-0.7-1.03c-0.21-0.3-0.43-0.59-0.64-0.88c-0.27-0.37-0.54-0.74-0.83-1.09
	c-0.1-0.13-0.21-0.25-0.31-0.38l-0.2-0.23c-0.66-0.8-1.36-1.57-2.07-2.3l-0.37-0.39c-0.36-0.35-0.73-0.7-1.1-1.04l-0.08-0.07
	c-0.19-0.18-0.38-0.35-0.57-0.52c-0.35-0.31-0.71-0.61-1.08-0.91c-0.25-0.21-0.51-0.41-0.76-0.6l-0.23-0.18
	c-0.28-0.22-0.56-0.44-0.85-0.65c-0.5-0.36-1-0.7-1.51-1.03c-0.09-0.06-0.19-0.13-0.28-0.19l-0.11-0.08l-2.45-1.56l1.47-2.5
	c6.74-11.39,19.16-18.46,32.42-18.46c0.83,0,1.72,0.03,2.82,0.11c2.33,0.19,4.5-1.16,5.41-3.31c5.63-13.4,18.65-22.06,33.19-22.06
	c18.65,0,34.41,14.56,35.86,33.15c0.2,2.68,2.31,4.78,4.99,4.99c14.04,1.1,26.21,10.37,31.01,23.62c0.64,1.77,2.12,3.06,3.96,3.46
	c16.7,3.6,29.35,18.04,30.77,35.11l0.26,3.25H174.13z"/>
<path style="fill:#FFFFFF;" d="M231.24,264.5c-12.11-3.77-13.92-5.59-17.7-17.69c-0.94-3.03-3.7-5.06-6.86-5.06
	c-3.17,0-5.93,2.03-6.87,5.06c-3.77,12.1-5.59,13.92-17.69,17.69c-3.03,0.94-5.06,3.7-5.06,6.87c0,3.16,2.03,5.92,5.05,6.86
	c12.11,3.77,13.93,5.59,17.7,17.7c0.94,3.02,3.7,5.05,6.87,5.05c3.16,0,5.92-2.03,6.86-5.05c3.77-12.11,5.59-13.93,17.7-17.7
	c3.02-0.94,5.05-3.7,5.05-6.86C236.29,268.2,234.26,265.44,231.24,264.5z M217.76,273.98c-3.8,2.14-6.33,4.67-8.47,8.47l-2.61,4.64
	l-2.62-4.64c-2.14-3.8-4.67-6.33-8.47-8.47l-4.64-2.61l4.64-2.62c3.8-2.14,6.34-4.67,8.47-8.47l2.62-4.64l2.61,4.64
	c2.14,3.8,4.67,6.34,8.47,8.47l4.64,2.62L217.76,273.98z"/>
<path style="fill:#FFFFFF;" d="M305.13,193.31c-14.92-4.65-17.39-7.12-22.03-22.04c-1.02-3.26-4-5.45-7.41-5.45
	c-3.42,0-6.39,2.19-7.41,5.45c-4.64,14.92-7.11,17.39-22.03,22.04c-3.26,1.01-5.45,3.99-5.45,7.4c0,3.42,2.19,6.4,5.45,7.41
	c7.46,2.32,11.81,4.1,14.87,7.17c3.06,3.06,4.84,7.41,7.16,14.86c1.02,3.26,3.99,5.45,7.41,5.45c3.41,0,6.39-2.19,7.41-5.45
	c4.64-14.91,7.11-17.38,22.02-22.03c3.27-1.01,5.46-3.99,5.46-7.41C310.58,197.3,308.39,194.32,305.13,193.31z M292,203.43
	c-6.73,3.17-10.42,6.86-13.6,13.59l-2.71,5.75l-2.71-5.75c-3.18-6.73-6.87-10.41-13.6-13.59l-5.75-2.71l5.75-2.72
	c6.73-3.18,10.42-6.86,13.6-13.6l2.71-5.74l2.71,5.74c3.18,6.74,6.87,10.42,13.6,13.6l5.75,2.71L292,203.43z"/>
<path style="fill:#FFFFFF;" d="M449.13,529.31c-14.92-4.65-17.39-7.12-22.03-22.04c-1.02-3.26-4-5.45-7.41-5.45
	c-3.42,0-6.39,2.19-7.41,5.45c-4.64,14.92-7.11,17.39-22.03,22.04c-3.26,1.01-5.45,3.99-5.45,7.4c0,3.42,2.19,6.4,5.45,7.41
	c7.46,2.32,11.81,4.1,14.87,7.16c3.06,3.07,4.84,7.42,7.16,14.87c1.02,3.26,3.99,5.46,7.41,5.46c3.41,0,6.39-2.19,7.41-5.46
	c4.64-14.91,7.11-17.39,22.02-22.03c3.27-1.01,5.46-3.99,5.46-7.41C454.58,533.3,452.39,530.32,449.13,529.31z M436,539.43
	c-6.73,3.17-10.42,6.86-13.6,13.59l-2.71,5.75l-2.71-5.74c-3.18-6.74-6.87-10.42-13.6-13.6l-5.75-2.72l5.75-2.71
	c6.73-3.18,10.42-6.86,13.6-13.6l2.71-5.74l2.71,5.74c3.18,6.74,6.87,10.42,13.6,13.6l5.75,2.71L436,539.43z"/>
<path style="fill:#FFFFFF;" d="M20.68,476.13c-12.11-3.77-13.93-5.59-17.7-17.69c-0.47-1.52-1.4-2.78-2.6-3.67
	c-1.2-0.88-2.68-1.39-4.26-1.39c-3.17,0-5.93,2.03-6.87,5.06c-3.77,12.1-5.59,13.92-17.69,17.69c-3.03,0.94-5.06,3.7-5.06,6.87
	c0,3.16,2.03,5.92,5.05,6.86c12.11,3.77,13.93,5.59,17.7,17.7c0.94,3.02,3.7,5.05,6.87,5.05c3.16,0,5.92-2.03,6.86-5.05
	c3.77-12.11,5.59-13.93,17.69-17.7c3.03-0.94,5.06-3.7,5.06-6.86C25.73,479.83,23.7,477.07,20.68,476.13z M7.2,485.61
	c-3.8,2.14-6.33,4.67-8.47,8.47l-2.61,4.64l-2.62-4.64c-2.14-3.8-4.67-6.33-8.47-8.47l-4.64-2.61l4.64-2.62
	c3.8-2.14,6.34-4.67,8.47-8.46l2.62-4.65l2.61,4.64c2.14,3.8,4.67,6.33,8.47,8.47l4.64,2.62L7.2,485.61z"/>
</svg>
