<?xml version="1.0" encoding="iso-8859-1"?>
<!-- Generator: Adobe Illustrator 21.0.2, SVG Export Plug-In . SVG Version: 6.00 Build 0)  -->
<svg version="1.1" id="rent" xmlns="http://www.w3.org/2000/svg" xmlns:xlink="http://www.w3.org/1999/xlink" x="0px" y="0px"
	 viewBox="-49 141 512 512" style="enable-background:new -49 141 512 512;" xml:space="preserve">
<path style="fill:#FFFFFF;" d="M443.26,372.07H298.58v-19.95c0-13.28-10.8-24.09-24.08-24.09s-24.08,10.81-24.08,24.09v19.95H105.73
	c-8.61,0-15.77,6.46-16.64,15.02c-0.06,0.57-0.09,1.15-0.09,1.71v128.93c0,9.23,7.51,16.73,16.73,16.73h26.9v59.75H23.64V328.99
	l175.3-116.61l175.31,116.61v22.43c0,2.38,1.94,4.32,4.32,4.32c2.39,0,4.32-1.94,4.32-4.32v-16.67l26.87,17.87
	c7.39,4.91,16.94,4.91,24.33,0c6.14-4.09,9.8-10.92,9.8-18.29s-3.66-14.21-9.8-18.29L204.38,163.23c-3.3-2.19-7.57-2.19-10.87,0
	L60.23,251.9c-1.99,1.32-2.53,4.01-1.21,5.99c0.64,0.96,1.62,1.62,2.75,1.85c1.13,0.22,2.29,0,3.25-0.64l133.92-89.09L429.3,323.24
	c3.78,2.51,5.94,6.55,5.94,11.09c0,4.53-2.16,8.57-5.94,11.08c-4.48,2.99-10.27,2.99-14.75,0l-210.17-139.8
	c-3.3-2.2-7.57-2.2-10.87,0L-16.66,345.42c-4.48,2.97-10.27,2.97-14.75-0.01c-3.77-2.51-5.94-6.55-5.94-11.08
	c0-4.54,2.16-8.58,5.94-11.09l58.54-38.94c0.96-0.64,1.61-1.61,1.84-2.75c0.23-1.13,0-2.28-0.64-3.24
	c-0.64-0.96-1.62-1.62-2.75-1.85c-1.13-0.23-2.28,0-3.24,0.64l-58.54,38.94c-6.14,4.08-9.8,10.92-9.8,18.29s3.66,14.21,9.8,18.29
	c3.63,2.41,7.83,3.69,12.17,3.69c4.33,0,8.54-1.28,12.16-3.69l26.86-17.87v259.46h-31.07c-10.53,0-19.1,8.57-19.1,19.11
	c0,10.53,8.57,19.1,19.1,19.1h430.05c10.53,0,19.1-8.57,19.1-19.1c0-10.54-8.57-19.11-19.1-19.11H382.9v-39.1
	c0-2.38-1.94-4.32-4.33-4.32c-2.38,0-4.32,1.94-4.32,4.32v39.1h-75.67v-59.75h144.68c9.23,0,16.74-7.5,16.74-16.73V388.8
	C460,379.57,452.49,372.07,443.26,372.07z M259.07,352.12c0-8.51,6.92-15.44,15.43-15.44s15.43,6.93,15.43,15.44v19.95h-30.86
	V352.12z M250.42,623.77h-266.5c-5.76,0-10.45-4.69-10.45-10.45c0-5.77,4.69-10.46,10.45-10.46h266.5V623.77z M250.42,594.21H141.28
	v-59.75h109.14V594.21z M289.93,623.77h-30.86v-89.31h30.86V623.77z M413.97,602.86c5.76,0,10.45,4.69,10.45,10.46
	c0,5.76-4.69,10.45-10.45,10.45H298.58v-20.91H413.97z M451.35,517.73c0,4.46-3.63,8.08-8.09,8.08H105.73
	c-4.45,0-8.08-3.62-8.08-8.08V388.8c0-4.46,3.63-8.08,8.08-8.08h337.53c4.46,0,8.09,3.62,8.09,8.08V517.73z"/>
<path style="fill:#FFFFFF;" d="M204.26,485.06l-15.65-29.01l3.5-1.07c7.71-2.37,11.78-8.72,11.78-18.36
	c0-12.91-7.24-19.19-22.15-19.19h-21.02c-0.95,0-1.45,0.63-1.45,1.25v68.99c0,0.41,1.47,1.35,3.9,1.35c2.38,0,3.89-0.89,3.89-1.35
	v-30.7h13.75l15.91,30.92c0.53,1.07,1.3,1.66,2.11,1.66c2.53,0,5.58-2.57,5.6-4.2L204.26,485.06z M167.06,452.14v-28.61h14.68
	c9.26,0,14.36,5.1,14.36,14.36c0,6.5-2.49,14.25-14.36,14.25H167.06z"/>
<path style="fill:#FFFFFF;" d="M264.07,486.08c0,1.23-0.47,2.94-1.35,2.94h-37.79c-1.47,0-3.05-0.54-3.05-1.35v-68.88
	c0-0.81,1.58-1.36,3.05-1.36h37.79c0.88,0,1.35,1.71,1.35,2.95c0,1.68-0.63,3.15-1.35,3.15h-33.04v27.23h19.13
	c0.94,0,1.36,1.47,1.36,2.52c0,0.49-0.23,2.31-1.36,2.31h-19.13v27.33h33.04C263.44,482.92,264.07,484.4,264.07,486.08z"/>
<path style="fill:#FFFFFF;" d="M325.73,418.68v68.99c0,0.41-1.47,1.35-3.9,1.35c-2.66,0-4.25-0.83-5.31-2.77l-28.47-53.22v54.64
	c0,0.41-1.47,1.35-3.9,1.35c-2.38,0-3.9-0.89-3.9-1.35v-68.88c0-0.63,1.71-1.36,3.9-1.36c3.68,0,4.76,0.23,7.64,5.71l26.14,50.53
	v-54.99c0-0.51,1.52-1.25,3.9-1.25C324.1,417.43,325.73,418.18,325.73,418.68z"/>
<g>
	<path style="fill:#FFFFFF;" d="M389.09,420.59c0,1.84-0.72,3.26-1.35,3.26h-18.49v63.82c0,0.41-1.48,1.35-3.9,1.35
		c-2.38,0-3.9-0.88-3.9-1.35v-63.82h-18.61c-0.72,0-1.35-1.52-1.35-3.26c0-1.49,0.56-3.16,1.35-3.16h44.9
		C388.54,417.43,389.09,419.1,389.09,420.59z"/>
</g>
<path style="fill:#FFFFFF;" d="M198.94,251.23c-23.79,0-43.14,19.36-43.14,43.15s19.35,43.15,43.14,43.15
	c23.8,0,43.15-19.36,43.15-43.15S222.74,251.23,198.94,251.23z M194.62,328.81l-3.7-0.89c-12.52-2.99-22.54-13.02-25.53-25.55
	l-0.88-3.7h30.11V328.81z M194.62,290.02h-30.1l0.89-3.7c3-12.49,13.02-22.5,25.51-25.48l3.7-0.89V290.02z M203.27,259.95l3.7,0.89
	c12.49,2.98,22.51,12.99,25.51,25.48l0.89,3.7h-30.1V259.95z M206.97,327.92l-3.7,0.89v-30.14h30.11l-0.88,3.7
	C229.51,314.9,219.49,324.93,206.97,327.92z"/>
<path style="fill:#FFFFFF;" d="M98.13,426.31c-14.92-4.65-17.39-7.12-22.03-22.04c-1.02-3.26-4-5.45-7.41-5.45
	c-3.42,0-6.39,2.19-7.41,5.45c-4.64,14.92-7.11,17.39-22.03,22.04c-3.26,1.01-5.45,3.99-5.45,7.4c0,3.42,2.19,6.4,5.45,7.41
	c7.46,2.32,11.81,4.1,14.87,7.16c3.06,3.07,4.84,7.42,7.16,14.87c1.02,3.26,3.99,5.46,7.41,5.46c3.41,0,6.39-2.19,7.41-5.46
	c4.64-14.91,7.11-17.39,22.02-22.03c3.27-1.01,5.46-3.99,5.46-7.41C103.58,430.3,101.39,427.32,98.13,426.31z M85,436.43
	c-6.73,3.17-10.42,6.86-13.6,13.59l-2.71,5.75l-2.71-5.74c-3.18-6.74-6.87-10.42-13.6-13.6l-5.75-2.72l5.75-2.71
	c6.73-3.18,10.42-6.86,13.6-13.6l2.71-5.74l2.71,5.74c3.18,6.74,6.87,10.42,13.6,13.6l5.75,2.71L85,436.43z"/>
<path style="fill:#FFFFFF;" d="M441,505.44c-0.77-0.98-1.79-1.75-3-2.21c-0.16-0.07-0.32-0.13-0.49-0.18
	c-3.67-1.14-6.39-2.11-8.51-3.23c-1.16-0.61-2.14-1.28-3-2.04c-1.19-1.08-2.14-2.36-3-3.99c-1.11-2.11-2.06-4.81-3.19-8.43
	c-0.47-1.52-1.4-2.78-2.6-3.67c-1.2-0.88-2.68-1.39-4.26-1.39c-3.17,0-5.93,2.03-6.87,5.06c-3.77,12.1-5.59,13.92-17.69,17.69
	c-3.03,0.94-5.06,3.7-5.06,6.87c0,3.16,2.03,5.92,5.05,6.86c12.11,3.77,13.93,5.59,17.7,17.7c0.94,3.02,3.7,5.05,6.87,5.05
	c3.16,0,5.92-2.03,6.86-5.05c1.13-3.63,2.08-6.33,3.19-8.44c0.86-1.63,1.81-2.91,3-3.99c0.86-0.76,1.84-1.43,3-2.05
	c2.12-1.12,4.84-2.08,8.5-3.22c0.17-0.05,0.34-0.11,0.5-0.18c1.2-0.47,2.23-1.24,3-2.21c0.99-1.23,1.56-2.8,1.56-4.47
	C442.56,508.24,441.99,506.68,441,505.44z M426,511.42l-1.97,1.11c-0.35,0.2-0.7,0.4-1.03,0.61c-3.24,2.01-5.5,4.41-7.44,7.86
	l-2.61,4.64l-2.62-4.64c-2.14-3.8-4.67-6.33-8.47-8.47l-4.64-2.61l4.64-2.62c3.8-2.13,6.34-4.67,8.47-8.46l2.62-4.65l2.61,4.64
	c1.94,3.45,4.2,5.85,7.44,7.86c0.33,0.21,0.68,0.41,1.03,0.61l1.97,1.11l2.67,1.51L426,511.42z"/>
<path style="fill:#FFFFFF;" d="M392.13,201.31c-14.92-4.65-17.39-7.12-22.03-22.04c-1.02-3.26-4-5.45-7.41-5.45
	c-3.42,0-6.39,2.19-7.41,5.45c-4.64,14.92-7.11,17.39-22.03,22.04c-3.26,1.01-5.45,3.99-5.45,7.4c0,3.42,2.19,6.4,5.45,7.41
	c7.46,2.32,11.81,4.1,14.87,7.17c3.06,3.06,4.84,7.41,7.16,14.86c1.02,3.26,3.99,5.45,7.41,5.45c3.41,0,6.39-2.19,7.41-5.45
	c4.64-14.91,7.11-17.38,22.02-22.03c3.27-1.01,5.46-3.99,5.46-7.41C397.58,205.3,395.39,202.32,392.13,201.31z M379,211.43
	c-6.73,3.17-10.42,6.86-13.6,13.59l-2.71,5.75l-2.71-5.75c-3.18-6.73-6.87-10.41-13.6-13.59l-5.75-2.71l5.75-2.72
	c6.73-3.18,10.42-6.86,13.6-13.6l2.71-5.74l2.71,5.74c3.18,6.74,6.87,10.42,13.6,13.6l5.75,2.71L379,211.43z"/>
<path style="fill:#FFFFFF;" d="M7.24,524.5c-12.11-3.77-13.93-5.59-17.7-17.69c-0.94-3.03-3.7-5.06-6.86-5.06
	c-3.17,0-5.93,2.03-6.87,5.06c-3.77,12.1-5.59,13.92-17.69,17.69c-3.03,0.94-5.06,3.7-5.06,6.87c0,3.16,2.03,5.92,5.05,6.86
	c12.11,3.77,13.93,5.59,17.7,17.7c0.94,3.02,3.7,5.05,6.87,5.05c3.16,0,5.92-2.03,6.86-5.05c3.77-12.11,5.59-13.93,17.7-17.7
	c3.02-0.94,5.05-3.7,5.05-6.86C12.29,528.2,10.26,525.44,7.24,524.5z M-6.24,533.98c-3.8,2.14-6.33,4.67-8.47,8.47l-2.61,4.64
	l-2.62-4.64c-2.14-3.8-4.67-6.33-8.47-8.47l-4.64-2.61l4.64-2.62c3.8-2.14,6.34-4.67,8.47-8.47l2.62-4.64l2.61,4.64
	c2.14,3.8,4.67,6.34,8.47,8.47l4.64,2.62L-6.24,533.98z"/>
</svg>
