<?xml version="1.0" encoding="iso-8859-1"?>
<!-- Generator: Adobe Illustrator 21.0.2, SVG Export Plug-In . SVG Version: 6.00 Build 0)  -->
<svg version="1.1" id="saving" xmlns="http://www.w3.org/2000/svg" xmlns:xlink="http://www.w3.org/1999/xlink" x="0px" y="0px"
	 viewBox="-49 141 512 512" style="enable-background:new -49 141 512 512;" xml:space="preserve">
<path style="fill:#FFFFFF;" d="M350.56,504.4l-1.96-0.72v-35.66l3.23,0.24c7.39,0.55,12,2.89,15.36,4.6
	c1.95,0.99,3.48,1.77,4.75,1.77c4.25,0,6.14-6.45,6.14-8.9c0-6.36-13.69-10.22-26.57-10.61l-2.91-0.09v-7.4
	c-0.12-0.33-1.36-1.31-2.86-1.31c-1.77,0-2.82,0.98-2.86,1.32v7.45l-2.61,0.34c-11.52,1.5-30.83,7.47-30.83,30.64
	c0,20.08,16.01,26.06,31.49,31.84l1.95,0.73v39.75l-3.34-0.38c-9.7-1.11-15.73-5.8-20.12-9.23c-2.65-2.06-4.74-3.68-6.43-3.68
	c-3.15,0-6.65,5.4-6.65,9.06c0,6.99,13.41,17.88,33.62,18.38l2.92,0.07v7.75c0.04,0.3,1.01,1.31,2.86,1.31
	c1.5,0,2.74-0.97,2.87-1.38l-0.01-7.83l2.53-0.4c19.38-3.12,30.05-15.04,30.05-33.59C381.18,517.49,366.7,510.39,350.56,504.4z
	 M344.26,502.19l-4.09-1.6c-7.6-2.97-15.7-6.96-15.7-16.76c0-7.89,5.95-13.37,16.32-15.03l3.47-0.55V502.19z M350.83,557.79
	l-3.61,0.74v-38.28l4.22,1.87c7.27,3.21,14.71,7.93,14.71,18.6C366.15,549.58,360.57,555.8,350.83,557.79z"/>
<path style="fill:#FFFFFF;" d="M442,590.45c-0.16-0.07-0.32-0.13-0.49-0.18c-3.67-1.14-6.39-2.11-8.51-3.23
	c-0.36-0.19-0.71-0.39-1.03-0.59c17.51-21.22,27.03-47.6,27.03-75.4c0-49.16-29.61-92.59-75.43-110.64l-1.9-0.75v-57.62l26.92,17.91
	c7.37,4.9,16.9,4.9,24.28,0c6.12-4.07,9.77-10.89,9.77-18.24c0-7.36-3.65-14.18-9.77-18.25l-57.58-38.3
	c-0.95-0.63-2.09-0.85-3.21-0.63c-1.12,0.23-2.08,0.87-2.72,1.82c-1.31,1.97-0.77,4.63,1.19,5.94l57.57,38.29
	c3.79,2.52,5.96,6.58,5.96,11.13c0,4.54-2.17,8.6-5.96,11.12c-4.49,2.98-10.3,2.98-14.79-0.01l-210.1-139.76
	c-0.17-0.11-0.35-0.21-0.52-0.32l-0.17-0.1c-0.13-0.07-0.31-0.16-0.5-0.25l-0.17-0.09c-0.12-0.05-0.33-0.14-0.53-0.22l-0.36-0.12
	c-2.9-1-6.02-0.59-8.56,1.1L-17.69,352.83c-4.49,2.98-10.3,2.98-14.79,0c-3.79-2.52-5.96-6.58-5.96-11.12
	c0-4.55,2.17-8.61,5.96-11.13l230.3-153.2l134.91,89.75c0.95,0.63,2.09,0.86,3.22,0.63c1.12-0.22,2.08-0.87,2.71-1.82
	c1.31-1.97,0.78-4.63-1.19-5.94l-134.24-89.3c-3.29-2.18-7.53-2.18-10.81,0l-73.29,48.75v-20.42h5.08c3.56,0,6.46-2.9,6.46-6.45
	v-22.04c0-3.56-2.9-6.46-6.46-6.46H47.36c-3.56,0-6.46,2.9-6.46,6.46v22.04c0,3.55,2.9,6.45,6.46,6.45h5.08v64.78l-89.66,59.65
	c-6.13,4.07-9.78,10.89-9.78,18.24c0,7.36,3.65,14.18,9.78,18.25c3.62,2.41,7.81,3.68,12.13,3.68c4.32,0,8.52-1.27,12.14-3.68
	l26.92-17.91v134.47c0,2.36,1.92,4.28,4.28,4.28s4.28-1.92,4.28-4.28V336.35l175.29-116.61l175.29,116.61v60.42l-3.74-0.95
	c-0.4-0.1-0.8-0.2-1.2-0.29l-1.48-0.35c-0.68-0.15-1.38-0.3-2.07-0.45c-0.41-0.09-0.81-0.17-1.22-0.25
	c-0.64-0.12-1.28-0.25-1.93-0.37c-0.37-0.07-0.74-0.13-1.11-0.19l-0.86-0.15c-0.42-0.07-0.83-0.14-1.25-0.2
	c-1.02-0.16-2.04-0.3-3.07-0.43c-0.3-0.04-0.61-0.07-0.92-0.11l-0.47-0.05c-0.67-0.08-1.33-0.15-2-0.22
	c-0.48-0.04-0.96-0.08-1.44-0.13c-0.68-0.05-1.35-0.11-2.02-0.15l-0.1-0.01c-0.43-0.03-0.86-0.06-1.29-0.08
	c-0.73-0.04-1.47-0.07-2.2-0.1l-0.36-0.02c-0.28-0.01-0.56-0.02-0.84-0.03c-1.08-0.03-2.15-0.05-3.23-0.05h-0.16
	c-56.2,0-105.17,39.93-116.46,94.94c-1.61,7.82-2.42,15.87-2.42,23.92c0,1,0.01,2,0.04,3c0.27,10.93,2.04,21.73,5.25,32.1
	c0.12,0.4,0.24,0.74,0.35,1.08l0.1,0.31c1.08,3.37,2.3,6.67,3.63,9.81l1.76,4.17h-43.38V389.05c0-6.8-5.53-12.33-12.33-12.33H69.95
	c-6.8,0-12.33,5.53-12.33,12.33v172.47H22.53v-39.6c0-2.36-1.92-4.28-4.28-4.28s-4.28,1.92-4.28,4.28v39.6h-32.95
	c-9.49,0-17.2,7.71-17.2,17.2c0,9.48,7.71,17.2,17.2,17.2h275.96l0.87,0.83c22.27,21.39,51.49,33.17,82.28,33.17
	c23.42,0,45.82-6.76,64.99-19.36c1.99,2.39,3.29,5.74,4.96,11.14c0.94,3.02,3.7,5.05,6.87,5.05c3.16,0,5.92-2.03,6.86-5.05
	c1.13-3.63,2.08-6.33,3.19-8.44c0.86-1.63,1.81-2.91,3-3.99c0.86-0.76,1.84-1.43,3-2.05c2.12-1.12,4.84-2.08,8.5-3.22
	c0.17-0.05,0.34-0.11,0.5-0.18c1.2-0.47,2.23-1.24,3-2.21c0.99-1.23,1.56-2.8,1.56-4.47c0-1.68-0.57-3.24-1.56-4.48
	C444.23,591.68,443.21,590.91,442,590.45z M110.57,225.15L61,258.12v-59.09h49.57V225.15z M49.46,190.47v-17.83h72.65v17.83H49.46z
	 M66.18,389.05c0-2.08,1.69-3.77,3.77-3.77h106.73c2.08,0,3.78,1.69,3.78,3.77v172.47H66.18V389.05z M-18.98,587.36
	c-4.77,0-8.65-3.88-8.65-8.64c0-4.77,3.88-8.64,8.65-8.64h255.9l0.87,1.47c2.25,3.79,4.73,7.49,7.38,11l3.63,4.81H-18.98z
	 M340.13,621.36c-47.03,0-88.95-29.91-104.31-74.43c-0.13-0.39-0.26-0.76-0.39-1.15c-0.16-0.48-0.32-0.97-0.47-1.46
	c-0.25-0.78-0.49-1.56-0.71-2.35l-0.14-0.45c-1.87-6.53-3.14-13.26-3.78-20.02l-0.03-0.29c-0.09-0.99-0.16-1.93-0.22-2.87
	l-0.05-0.76c-0.05-0.82-0.09-1.65-0.12-2.49l-0.03-0.83c-0.03-1.06-0.05-2.13-0.05-3.21c0-7.47,0.75-14.94,2.24-22.2
	c10.48-51.05,55.92-88.1,108.06-88.1h0.11c1.16,0,2.43,0.03,3.95,0.08l0.15,0.01c0.27,0.01,0.54,0.02,0.8,0.03
	c1.29,0.05,2.58,0.13,3.84,0.23l0.92,0.09c1.11,0.09,2.2,0.21,3.29,0.33l0.89,0.11c1.19,0.15,2.38,0.32,3.56,0.51
	c0.46,0.08,0.93,0.15,1.4,0.24c1.11,0.19,2.22,0.39,3.33,0.62c0.38,0.08,0.76,0.16,1.14,0.25l0.4,0.09
	c0.72,0.16,1.43,0.32,2.14,0.49c0.86,0.21,1.7,0.42,2.55,0.65c0.66,0.18,1.33,0.36,2,0.55c0.71,0.21,1.42,0.42,2.13,0.64l0.99,0.31
	c21.78,6.98,41.32,20.99,55.03,39.46c14.19,19.11,21.69,41.8,21.69,65.61c0,25.25-8.46,49.23-24.05,68.7
	c-0.87-1.9-1.66-4.23-2.58-7.17c-0.47-1.52-1.4-2.78-2.6-3.67c-1.2-0.88-2.68-1.39-4.26-1.39c-3.17,0-5.93,2.03-6.87,5.06
	c-3.77,12.1-5.59,13.92-17.69,17.69c-3.03,0.94-5.06,3.7-5.06,6.87c0,3.16,2.03,5.92,5.05,6.86c1.76,0.55,3.31,1.05,4.67,1.56
	C380.03,615.86,360.5,621.36,340.13,621.36z M430,598.64l-1.97,1.11c-0.35,0.2-0.7,0.4-1.03,0.61c-3.24,2.01-5.5,4.41-7.44,7.86
	l-2.61,4.64l-2.62-4.64c-0.59-1.05-1.21-2-1.89-2.87c-1.74-2.3-3.83-4.05-6.58-5.6l-0.1-0.06l-4.54-2.55l4.64-2.62
	c3.8-2.13,6.34-4.67,8.47-8.46l2.62-4.65l2.61,4.64c0.18,0.32,0.36,0.62,0.54,0.92c1.6,2.6,3.43,4.57,5.85,6.25
	c0.34,0.23,0.69,0.46,1.05,0.69c0.33,0.21,0.68,0.41,1.03,0.61l1.97,1.11l2.67,1.51L430,598.64z"/>
<path style="fill:#FFFFFF;" d="M160.57,462.08v14.98c0,2.35-1.91,4.26-4.25,4.26c-2.35,0-4.25-1.91-4.25-4.26v-14.98
	c0-2.35,1.9-4.26,4.25-4.26C158.66,457.82,160.57,459.73,160.57,462.08z"/>
<path style="fill:#FFFFFF;" d="M139.151,346.278c-14.92-4.65-17.39-7.12-22.03-22.04c-1.02-3.26-4-5.45-7.41-5.45
	c-3.42,0-6.39,2.19-7.41,5.45c-4.64,14.92-7.11,17.39-22.03,22.04c-3.26,1.01-5.45,3.99-5.45,7.4c0,3.42,2.19,6.4,5.45,7.41
	c7.46,2.32,11.81,4.1,14.87,7.16c3.06,3.07,4.84,7.42,7.16,14.87c1.02,3.26,3.99,5.46,7.41,5.46c3.41,0,6.39-2.19,7.41-5.46
	c4.64-14.91,7.11-17.39,22.02-22.03c3.27-1.01,5.46-3.99,5.46-7.41C144.601,350.268,142.411,347.288,139.151,346.278z
	 M126.021,356.398c-6.73,3.17-10.42,6.86-13.6,13.59l-2.71,5.75l-2.71-5.74c-3.18-6.74-6.87-10.42-13.6-13.6l-5.75-2.72l5.75-2.71
	c6.73-3.18,10.42-6.86,13.6-13.6l2.71-5.74l2.71,5.74c3.18,6.74,6.87,10.42,13.6,13.6l5.75,2.71L126.021,356.398z"/>
<path style="fill:#FFFFFF;" d="M387.463,202.643c-14.92-4.65-17.39-7.12-22.03-22.04c-1.02-3.26-4-5.45-7.41-5.45
	c-3.42,0-6.39,2.19-7.41,5.45c-4.64,14.92-7.11,17.39-22.03,22.04c-3.26,1.01-5.45,3.99-5.45,7.4c0,3.42,2.19,6.4,5.45,7.41
	c7.46,2.32,11.81,4.1,14.87,7.17c3.06,3.06,4.84,7.41,7.16,14.86c1.02,3.26,3.99,5.45,7.41,5.45c3.41,0,6.39-2.19,7.41-5.45
	c4.64-14.91,7.11-17.38,22.02-22.03c3.27-1.01,5.46-3.99,5.46-7.41C392.913,206.633,390.723,203.653,387.463,202.643z
	 M374.333,212.763c-6.73,3.17-10.42,6.86-13.6,13.59l-2.71,5.75l-2.71-5.75c-3.18-6.73-6.87-10.41-13.6-13.59l-5.75-2.71l5.75-2.72
	c6.73-3.18,10.42-6.86,13.6-13.6l2.71-5.74l2.71,5.74c3.18,6.74,6.87,10.42,13.6,13.6l5.75,2.71L374.333,212.763z"/>
<path style="fill:#FFFFFF;" d="M42.24,491.833c-12.11-3.77-13.93-5.59-17.7-17.69c-0.94-3.03-3.7-5.06-6.86-5.06
	c-3.17,0-5.93,2.03-6.87,5.06c-3.77,12.1-5.59,13.92-17.69,17.69c-3.03,0.94-5.06,3.7-5.06,6.87c0,3.16,2.03,5.92,5.05,6.86
	c12.11,3.77,13.93,5.59,17.7,17.7c0.94,3.02,3.7,5.05,6.87,5.05c3.16,0,5.92-2.03,6.86-5.05c3.77-12.11,5.59-13.93,17.7-17.7
	c3.02-0.94,5.05-3.7,5.05-6.86C47.29,495.533,45.26,492.773,42.24,491.833z M28.76,501.313c-3.8,2.14-6.33,4.67-8.47,8.47
	l-2.61,4.64l-2.62-4.64c-2.14-3.8-4.67-6.33-8.47-8.47l-4.64-2.61l4.64-2.62c3.8-2.14,6.34-4.67,8.47-8.47l2.62-4.64l2.61,4.64
	c2.14,3.8,4.67,6.34,8.47,8.47l4.64,2.62L28.76,501.313z"/>
</svg>
