<svg xmlns="http://www.w3.org/2000/svg" viewBox="0 0 240.125 56.125"><g fill="#4b4154"><path d="M65.365 39.825a.984.984 0 0 1-.288-.727V14.713c0-.293.096-.535.288-.727a.985.985 0 0 1 .727-.287c.293 0 .535.096.727.287a.991.991 0 0 1 .287.727v11.161h17.079V14.713c0-.293.096-.535.288-.727a.985.985 0 0 1 .727-.287c.27 0 .506.096.709.287a.961.961 0 0 1 .305.727v24.385a.958.958 0 0 1-.305.727 1.002 1.002 0 0 1-.709.287.984.984 0 0 1-1.015-1.014V27.701H67.106v11.397a.988.988 0 0 1-.287.727.991.991 0 0 1-.727.287.985.985 0 0 1-.727-.287zM105.897 22.643a8.963 8.963 0 0 1 3.399 3.399c.823 1.443 1.235 3.056 1.235 4.836v8.219c0 .293-.091.535-.27.727-.181.191-.429.287-.745.287a.984.984 0 0 1-1.014-1.014v-2.639c-.744 1.196-1.764 2.137-3.06 2.824-1.296.689-2.745 1.032-4.346 1.032-1.782 0-3.393-.411-4.836-1.235a8.946 8.946 0 0 1-3.399-3.398c-.823-1.443-1.234-3.044-1.234-4.803 0-1.78.411-3.393 1.234-4.836a8.963 8.963 0 0 1 3.399-3.399c1.443-.823 3.054-1.234 4.836-1.234 1.757.001 3.358.412 4.801 1.234zm-1.014 14.797a7.05 7.05 0 0 0 2.656-2.705c.642-1.15.963-2.436.963-3.856s-.321-2.705-.963-3.855a7.168 7.168 0 0 0-2.656-2.723c-1.128-.665-2.39-.998-3.788-.998s-2.66.333-3.788.998a7.282 7.282 0 0 0-2.672 2.723c-.654 1.15-.981 2.434-.981 3.855 0 1.42.327 2.706.981 3.856a7.162 7.162 0 0 0 2.672 2.705c1.128.654 2.39.981 3.788.981s2.66-.327 3.788-.981zM129.875 22.643a8.97 8.97 0 0 1 3.399 3.399c.821 1.443 1.234 3.056 1.234 4.836 0 1.759-.412 3.36-1.234 4.803a8.96 8.96 0 0 1-3.399 3.398c-1.443.824-3.056 1.235-4.836 1.235-1.601 0-3.05-.344-4.346-1.032-1.296-.687-2.316-1.628-3.06-2.824V47.01c0 .317-.091.565-.272.745-.181.179-.427.27-.744.27-.293 0-.535-.091-.727-.27-.191-.181-.287-.429-.287-.745V30.675c.022-1.735.451-3.314 1.284-4.735a8.94 8.94 0 0 1 3.399-3.331c1.432-.801 3.015-1.201 4.752-1.201 1.782.002 3.395.413 4.837 1.235zm-1.048 14.797a7.162 7.162 0 0 0 2.672-2.705c.653-1.15.98-2.436.98-3.856s-.327-2.705-.98-3.855a7.282 7.282 0 0 0-2.672-2.723c-1.128-.665-2.39-.998-3.788-.998-1.399 0-2.661.333-3.788.998a7.16 7.16 0 0 0-2.656 2.723c-.642 1.15-.963 2.434-.963 3.855 0 1.42.321 2.706.963 3.856a7.037 7.037 0 0 0 2.656 2.705c1.126.654 2.388.981 3.788.981 1.398 0 2.66-.327 3.788-.981zM153.854 22.643a8.97 8.97 0 0 1 3.399 3.399c.821 1.443 1.234 3.056 1.234 4.836 0 1.759-.412 3.36-1.234 4.803a8.96 8.96 0 0 1-3.399 3.398c-1.443.824-3.056 1.235-4.836 1.235-1.601 0-3.05-.344-4.346-1.032-1.296-.687-2.316-1.628-3.06-2.824V47.01c0 .317-.091.565-.272.745-.181.179-.427.27-.744.27-.293 0-.535-.091-.727-.27-.191-.181-.287-.429-.287-.745V30.675c.022-1.735.451-3.314 1.284-4.735a8.94 8.94 0 0 1 3.399-3.331c1.432-.801 3.015-1.201 4.752-1.201 1.781.002 3.394.413 4.837 1.235zm-1.048 14.797a7.162 7.162 0 0 0 2.672-2.705c.653-1.15.98-2.436.98-3.856s-.327-2.705-.98-3.855a7.282 7.282 0 0 0-2.672-2.723c-1.128-.665-2.39-.998-3.788-.998-1.399 0-2.661.333-3.788.998a7.16 7.16 0 0 0-2.656 2.723c-.642 1.15-.963 2.434-.963 3.855 0 1.42.321 2.706.963 3.856a7.037 7.037 0 0 0 2.656 2.705c1.126.654 2.388.981 3.788.981 1.398 0 2.66-.327 3.788-.981zM177.899 22.424c0 .091-.045.248-.134.473L166.4 47.518c-.202.406-.462.609-.777.609a1.36 1.36 0 0 1-.473-.102c-.429-.181-.644-.441-.644-.778 0-.091.045-.248.136-.473l3.381-7.305a1.34 1.34 0 0 1-.134-.237l-7.406-16.233a1.19 1.19 0 0 1-.136-.541c0-.339.191-.597.575-.778.181-.09.36-.136.541-.136.339 0 .597.193.778.575l6.866 15.016 6.899-14.982c.203-.406.463-.609.778-.609.158 0 .315.034.473.102.428.181.642.44.642.778zM198.496 14.172c.315.317.473.733.473 1.252v15.422c0 1.758-.412 3.353-1.235 4.785a9.103 9.103 0 0 1-3.347 3.381c-1.41.823-2.983 1.235-4.718 1.235-1.737 0-3.32-.412-4.752-1.235a8.912 8.912 0 0 1-3.365-3.381c-.811-1.432-1.217-3.027-1.217-4.785 0-1.759.378-3.354 1.134-4.787.754-1.431 1.792-2.552 3.111-3.365 1.319-.811 2.79-1.217 4.413-1.217a8.32 8.32 0 0 1 6.527 3.078v-9.132c0-.518.163-.935.49-1.252.327-.315.739-.473 1.235-.473.518.001.935.159 1.251.474zm-5.766 22.203a5.83 5.83 0 0 0 2.148-2.284c.518-.969.778-2.051.778-3.245s-.26-2.272-.778-3.231c-.52-.957-1.235-1.713-2.148-2.266s-1.934-.829-3.06-.829c-1.128 0-2.148.276-3.062.829a5.983 5.983 0 0 0-2.164 2.266c-.53.959-.795 2.036-.795 3.231s.264 2.276.795 3.245a5.948 5.948 0 0 0 2.164 2.284c.914.553 1.934.829 3.062.829 1.126 0 2.147-.276 3.06-.829zM221.222 31.641c-.294.282-.666.423-1.116.423h-12.852c.248 1.579.963 2.853 2.148 3.82 1.183.971 2.632 1.455 4.346 1.455.675 0 1.38-.124 2.113-.372.732-.248 1.335-.553 1.809-.913a1.754 1.754 0 0 1 1.116-.372c.429 0 .768.112 1.016.338.406.339.608.721.608 1.15 0 .406-.181.744-.541 1.014-.766.609-1.719 1.105-2.857 1.489-1.14.382-2.227.575-3.263.575-1.849 0-3.507-.4-4.972-1.201a8.716 8.716 0 0 1-3.434-3.332c-.823-1.42-1.234-3.032-1.234-4.836 0-1.803.388-3.42 1.166-4.853s1.861-2.548 3.247-3.349c1.386-.801 2.959-1.201 4.718-1.201 1.736 0 3.235.384 4.499 1.15 1.262.766 2.231 1.839 2.908 3.213.677 1.376 1.014 2.954 1.014 4.735 0 .429-.146.784-.439 1.067zm-11.989-5.903c-1.028.902-1.674 2.109-1.946 3.619h11.263c-.203-1.51-.766-2.717-1.691-3.619-.924-.901-2.131-1.353-3.619-1.353-1.645 0-2.982.452-4.007 1.353zM228.46 39.537c-1.353-.473-2.414-1.093-3.18-1.859a1.433 1.433 0 0 1-.439-1.048c0-.542.226-.981.677-1.319.427-.317.823-.473 1.183-.473.451 0 .88.202 1.286.608.427.473 1.071.886 1.927 1.235.857.349 1.77.524 2.741.524 1.284 0 2.282-.215 2.993-.644.709-.427 1.065-1.002 1.065-1.724 0-.699-.349-1.28-1.048-1.743-.699-.462-1.883-.85-3.552-1.166-4.328-.833-6.492-2.615-6.492-5.344 0-1.104.326-2.04.98-2.806.654-.766 1.51-1.341 2.57-1.725a9.9 9.9 0 0 1 3.383-.575c1.465 0 2.778.237 3.94.711 1.16.473 2.079 1.128 2.756 1.961.293.361.441.721.441 1.083 0 .382-.193.732-.575 1.048-.249.181-.565.27-.947.27-.587 0-1.117-.215-1.591-.644-.563-.518-1.16-.884-1.792-1.098-.632-.215-1.398-.323-2.3-.323-1.037 0-1.888.176-2.552.524-.666.351-.998.841-.998 1.471 0 .453.112.829.338 1.134.226.305.654.587 1.286.845.63.26 1.543.514 2.739.762 2.457.496 4.198 1.183 5.224 2.063s1.54 2.018 1.54 3.416a4.984 4.984 0 0 1-.845 2.824c-.565.845-1.393 1.51-2.487 1.995s-2.406.727-3.94.727c-1.537.001-2.98-.237-4.331-.71z"/></g><circle cx="27.979" cy="28.198" r="27.919" fill="#e3cfe1"/><g fill="#4b4154"><path d="M12.837 41.241a1.29 1.29 0 0 1-.396-.945V16.102c0-.391.131-.711.396-.964.263-.252.58-.379.945-.379.391 0 .711.127.964.379.252.253.379.573.379.964v24.193c0 .366-.127.683-.379.945a1.276 1.276 0 0 1-.964.396 1.285 1.285 0 0 1-.945-.395z"/><path d="M13.783 41.799c-.411 0-.768-.149-1.06-.443a1.453 1.453 0 0 1-.444-1.061V16.103c0-.434.15-.798.446-1.083a1.482 1.482 0 0 1 1.058-.424c.432 0 .796.142 1.079.425.284.287.427.65.427 1.081v24.193c0 .407-.142.763-.424 1.057a1.437 1.437 0 0 1-1.082.447zm0-26.877c-.327 0-.599.109-.833.332a1.115 1.115 0 0 0-.346.848v24.193c0 .326.114.597.349.829l.001.001c.232.234.503.347.829.347.347 0 .625-.113.847-.346.221-.232.333-.511.333-.832V16.103c0-.347-.108-.625-.331-.851-.223-.222-.501-.33-.849-.33z"/><g><path d="M22.387 41.258c-.253-.252-.379-.573-.379-.963V16.102c0-.391.125-.711.379-.964.252-.252.573-.379.963-.379.413 0 .757.162 1.033.481l16.45 21.613V16.102c0-.391.131-.711.396-.964.263-.252.58-.379.947-.379.39 0 .71.127.963.379.252.253.379.573.379.964v24.193c0 .366-.127.683-.379.945a1.275 1.275 0 0 1-.963.396c-.459 0-.792-.149-.999-.447L24.693 19.577v20.718c0 .366-.127.683-.379.945a1.276 1.276 0 0 1-.964.396c-.389.001-.711-.124-.963-.378z"/><path d="M42.176 41.799c-.513 0-.894-.174-1.133-.516L24.856 20.059v20.237c0 .408-.142.763-.424 1.057-.283.296-.647.446-1.082.446-.434 0-.797-.142-1.077-.425-.284-.281-.427-.645-.427-1.079V16.103c0-.434.144-.796.427-1.08.282-.282.645-.426 1.078-.426.459 0 .848.181 1.156.537L40.67 36.37V16.103c0-.434.15-.798.446-1.083a1.483 1.483 0 0 1 1.06-.424c.431 0 .794.142 1.077.425.284.286.427.65.427 1.081v24.193c0 .408-.142.763-.424 1.057a1.434 1.434 0 0 1-1.08.447zM24.53 19.095l.293.383 16.484 21.613c.181.259.464.383.869.383.346 0 .623-.113.845-.346.221-.23.333-.51.333-.832V16.103c0-.347-.108-.626-.331-.851-.223-.221-.501-.329-.847-.329-.328 0-.601.109-.834.332a1.115 1.115 0 0 0-.346.848v21.234L24.253 15.34a1.135 1.135 0 0 0-.903-.417c-.349 0-.626.108-.848.331-.223.223-.331.501-.331.85v24.193c0 .35.108.626.331.847l.001.001c.221.221.499.329.848.329.347 0 .624-.113.847-.345.221-.232.333-.511.333-.833V19.095z"/></g></g></svg>